<svg t="1655435882319" class="icon" viewBox="0 0 1024 1024" version="1.1" xmlns="http://www.w3.org/2000/svg" p-id="958" width="200" height="200"><path d="M512 98C283.354 98 98 283.354 98 512s185.354 414 414 414 414-185.354 414-414S740.646 98 512 98z m0 60c195.509 0 354 158.491 354 354S707.509 866 512 866 158 707.509 158 512s158.491-354 354-354z" fill="#4633FF" p-id="959"></path><path d="M698.657 286.4c23.218-7.74 45.318 14.05 38.173 37.243l-0.226 0.703-98.641 295.925c-5.24 15.718-22.23 24.213-37.948 18.973-15.56-5.187-24.042-21.89-19.126-37.475l0.153-0.472 79.668-239.004-239.004 79.668c-15.56 5.188-32.368-3.086-37.786-18.504l-0.161-0.47c-5.187-15.56 3.087-32.367 18.504-37.786l0.47-0.16 295.924-98.642z" fill="#48EBE9" p-id="960"></path><path d="M601.294 582.039c15.718-5.24 32.708 3.255 37.947 18.973 5.187 15.561-3.087 32.368-18.504 37.787l-0.47 0.16-295.924 98.642c-23.218 7.74-45.318-14.051-38.173-37.244l0.226-0.703 98.641-295.925c5.24-15.718 22.23-24.213 37.948-18.973 15.56 5.187 24.042 21.89 19.126 37.475l-0.153 0.472-79.668 239.003 239.004-79.667z" fill="#48EBE9" p-id="961"></path><path d="M512 512m-47 0a47 47 0 1 0 94 0 47 47 0 1 0-94 0Z" fill="#48EBE9" p-id="962"></path></svg>